#!OML:ASF F:\twosubjects\two\wednesday\Session 1\rory1.ASF
:FULLY-SPECIFIED
:DEGREES
50
root 8.99716 18.0036 -18.7784 2.76378 -10.1601 6.21484
lowerback 2.8102 -1.40422 -10.623
upperback -0.0727957 -2.23431 -0.741011
thorax -1.28353 -1.04739 5.26115
lowerneck -14.9895 -3.09774 -3.02947
upperneck 9.8919 -3.92791 2.92177
head 5.54789 -1.81382 1.05323
rclavicle -4.58571e-014 -2.11209e-014
rhumerus -37.2203 -24.4642 -47.2964
rradius 76.7255
rwrist -11.2439
rhand -23.0701 41.229
rfingers 7.12502
rthumb 3.37545 11.276
lclavicle -4.58571e-014 -2.11209e-014
lhumerus -22.1048 -8.15812 81.9411
lradius 35.579
lwrist 4.75047
lhand -21.487 16.3748
lfingers 7.12502
lthumb 4.90414 46.298
rfemur -30.1625 7.60178 10.165
rtibia 33.2267
rfoot -7.13849 -11.3783
rtoes -3.18984
lfemur -3.3305 0.942601 -30.9807
ltibia 22.7603
lfoot -15.4034 2.19595
ltoes -14.6683
51
root 8.9775 18.0247 -18.6287 2.81941 -9.96072 6.16458
lowerback 2.64247 -1.58484 -10.6089
upperback -0.187565 -2.45784 -0.587127
thorax -1.26528 -1.15513 5.41614
lowerneck -13.9784 -2.82307 -3.54648
upperneck 9.0332 -3.48197 3.04545
head 5.11046 -1.61875 1.23124
rclavicle 1.08338e-014 -8.39865e-015
rhumerus -36.5864 -24.3379 -46.559
rradius 77.6525
rwrist -11.8226
rhand -23.1487 41.5735
rfingers 7.12502
rthumb 3.29945 11.6193
lclavicle 1.08338e-014 -8.39865e-015
lhumerus -22.1513 -8.42219 81.9919
lradius 36.2633
lwrist 5.05373
lhand -21.5273 15.7146
lfingers 7.12502
lthumb 4.86523 45.6388
rfemur -30.1983 8.66484 9.85467
rtibia 30.9363
rfoot -6.6904 -11.5948
rtoes -0.482273
lfemur -2.35764 1.32698 -30.8426
ltibia 21.7904
lfoot -14.9739 1.84561
ltoes -16.0545
52
root 8.95543 18.0422 -18.4817 2.83198 -9.73442 6.27718
lowerback 2.44279 -1.58961 -10.6799
upperback 0.0473658 -2.42498 -0.581835
thorax -0.908937 -1.16572 5.44804
lowerneck -15.5591 -3.42826 -4.09264
upperneck 10.1382 -4.20135 3.40926
head 5.76131 -1.94478 1.34316
rclavicle -3.10958e-014 -2.2736e-014
rhumerus -35.7723 -25.2239 -45.7468
rradius 78.4508
rwrist -11.6729
rhand -23.3239 42.1821
rfingers 7.12502
rthumb 3.13029 12.2253
lclavicle -3.10958e-014 -2.2736e-014
lhumerus -21.0616 -8.78866 82.1383
lradius 36.5151
lwrist 4.92862
lhand -21.8118 15.9274
lfingers 7.12502
lthumb 4.59046 45.8577
rfemur -30.2568 9.82669 9.31972
rtibia 28.7519
rfoot -6.40257 -11.9864
rtoes 1.02401
lfemur -1.40797 1.66377 -30.854
ltibia 20.8609
lfoot -14.4701 1.39448
ltoes -16.8535
53
root 8.93321 18.0494 -18.329 2.65882 -9.44235 6.39417
lowerback 2.42479 -1.68521 -10.7539
upperback -0.019913 -2.55594 -0.554563
thorax -0.942331 -1.22631 5.5208
lowerneck -15.0423 -3.57799 -4.50767
upperneck 9.9763 -4.36086 3.61529
head 5.64524 -2.02918 1.46707
rclavicle -3.41968e-014 -3.49737e-014
rhumerus -35.5434 -25.5116 -44.6579
rradius 79.442
rwrist -11.1964
rhand -23.1795 42.8722
rfingers 7.12502
rthumb 3.26972 12.9175
lclavicle -3.41968e-014 -3.49737e-014
lhumerus -20.8824 -8.88555 82.2319
lradius 36.8856
lwrist 4.71945
lhand -21.979 16.1716
lfingers 7.12502
lthumb 4.42902 46.1053
rfemur -30.0349 10.8164 8.87728
rtibia 26.7103
rfoot -6.28767 -12.3035
rtoes -2.24628
lfemur -0.248907 1.60515 -30.9067
ltibia 20.0428
lfoot -14.1573 1.13767
ltoes -16.1112
54
root 8.91248 18.0515 -18.1728 2.5162 -9.14818 6.37539
lowerback 2.48519 -1.7946 -10.6494
upperback -0.1185 -2.71294 -0.571725
thorax -1.05788 -1.29533 5.45161
lowerneck -14.5142 -3.4101 -4.13945
upperneck 9.53772 -4.17892 3.29894
head 5.39777 -1.95641 1.3347
rclavicle 1.06534e-014 1.93784e-014
rhumerus -35.315 -25.7533 -43.7458
rradius 80.5484
rwrist -11.1961
rhand -23.2518 43.3267
rfingers 7.12502
rthumb 3.19996 13.371
lclavicle 1.06534e-014 1.93784e-014
lhumerus -21.0182 -9.09422 82.1075
lradius 37.5246
lwrist 4.73373
lhand -21.997 15.897
lfingers 7.12502
lthumb 4.41167 45.8311
rfemur -29.7866 11.4801 8.67817
rtibia 24.8384
rfoot -6.20988 -12.4718
rtoes -4.31098
lfemur 0.82269 1.52958 -30.8214
ltibia 19.4003
lfoot -13.8918 0.949811
ltoes -15.9484
55
root 8.89383 18.0611 -18.0135 2.44652 -8.73741 6.14465
lowerback 2.32775 -1.87969 -10.2834
upperback -0.178776 -2.80026 -0.592081
thorax -1.0351 -1.33999 5.22243
lowerneck -13.6907 -3.30721 -3.64747
upperneck 8.96301 -4.10715 2.92639
head 5.06155 -1.93907 1.15995
rclavicle 4.2022e-014 3.06128e-014
rhumerus -35.161 -26.0909 -42.788
rradius 81.5744
rwrist -11.4542
rhand -23.7557 43.7501
rfingers 7.12502
rthumb 2.71326 13.7876
lclavicle 4.2022e-014 3.06128e-014
lhumerus -21.1752 -9.65478 82.0209
lradius 38.2068
lwrist 4.86803
lhand -22.7117 15.5609
lfingers 7.12502
lthumb 3.72147 45.5082
rfemur -29.5195 11.7356 8.80543
rtibia 23.1806
rfoot -6.32384 -12.3153
rtoes -0.439671
lfemur 1.77108 1.51777 -30.4714
ltibia 18.9192
lfoot -13.6235 0.614125
ltoes -16.7994
56
root 8.87481 18.081 -17.851 2.42854 -8.39093 6.1299
lowerback 2.1641 -1.9307 -10.1429
upperback 0.145204 -2.82363 -0.60867
thorax -0.607444 -1.38522 5.11172
lowerneck -15.0488 -3.43998 -3.59141
upperneck 9.42423 -4.25479 2.89519
head 5.43129 -1.99719 1.10621
rclavicle -3.00242e-014 -7.85199e-015
rhumerus -34.2001 -27.071 -42.0579
rradius 82.4726
rwrist -11.5989
rhand -23.6309 44.5779
rfingers 7.12502
rthumb 2.83387 14.617
lclavicle -3.00242e-014 -7.85199e-015
lhumerus -20.1482 -10.1786 81.8481
lradius 38.5758
lwrist 5.19527
lhand -24.1827 14.8958
lfingers 7.12502
lthumb 2.30092 44.8632
rfemur -29.3098 11.6688 8.84633
rtibia 21.7656
rfoot -7.32461 -12.1651
rtoes 0.88407
lfemur 2.50667 1.3636 -30.3052
ltibia 18.4919
lfoot -13.1833 0.0579608
ltoes -14.7597
57
root 8.85124 18.093 -17.6893 2.33095 -8.19264 6.42545
lowerback 2.02069 -1.96036 -10.4242
upperback -0.47075 -2.89436 -0.723138
thorax -1.15269 -1.36963 5.15924
lowerneck -12.6062 -3.41743 -3.68263
upperneck 9.08208 -4.30211 3.01861
head 4.93002 -2.04003 1.19258
rclavicle 5.24528e-014 2.74571e-015
rhumerus -34.9137 -26.4513 -40.5197
rradius 83.5711
rwrist -11.7468
rhand -23.4803 45.3665
rfingers 7.12502
rthumb 2.97926 15.4076
lclavicle 5.24528e-014 2.74571e-015
lhumerus -21.2546 -10.9161 82.0039
lradius 39.0169
lwrist 5.52598
lhand -25.4246 13.5747
lfingers 7.12502
lthumb 1.10148 43.5516
rfemur -29.1843 11.9585 8.48924
rtibia 20.5976
rfoot -7.54626 -12.3018
rtoes -0.215482
lfemur 3.30243 0.883334 -30.4698
ltibia 18.1409
lfoot -12.8187 -0.55705
ltoes -9.27226
58
root 8.82767 18.0861 -17.5218 2.16682 -8.04456 6.49915
lowerback 1.96073 -1.84042 -10.3452
upperback -0.134783 -2.70428 -0.843287
thorax -0.807868 -1.30503 4.97676
lowerneck -14.0359 -3.63291 -3.30965
upperneck 9.60993 -4.59082 2.74641
head 5.32425 -2.17082 0.997575
rclavicle -3.32731e-014 -1.72943e-014
rhumerus -34.2285 -27.5954 -39.7093
rradius 84.4322
rwrist -11.2638
rhand -24.6125 45.7357
rfingers 7.12502
rthumb 1.88578 15.7643
lclavicle -3.32731e-014 -1.72943e-014
lhumerus -20.331 -11.5288 81.8408
lradius 39.3111
lwrist 5.75373
lhand -25.3603 12.7493
lfingers 7.12502
lthumb 1.16354 42.7259
rfemur -29.0858 12.0761 8.49821
rtibia 19.9055
rfoot -8.34311 -11.9402
rtoes -0.427619
lfemur 4.61549 0.0831341 -30.4969
ltibia 17.6921
lfoot -12.9585 -1.15162
ltoes -1.59645
59
root 8.80788 18.076 -17.354 2.07682 -7.87172 6.32289
lowerback 1.83324 -1.96768 -10.0586
upperback -0.186227 -2.85299 -0.682613
thorax -0.770915 -1.3804 4.98224
lowerneck -13.411 -3.67275 -3.58634
upperneck 9.1183 -4.57691 2.54862
head 5.06887 -2.19483 0.99499
rclavicle -1.18028e-016 1.92821e-014
rhumerus -33.3358 -27.6762 -38.919
rradius 85.3547
rwrist -11.0561
rhand -25.6388 45.4247
rfingers 7.12502
rthumb 0.894601 15.4468
lclavicle -1.18028e-016 1.92821e-014
lhumerus -20.4882 -11.1659 81.9612
lradius 39.7858
lwrist 5.57181
lhand -24.7754 13.1086
lfingers 7.12502
lthumb 1.72852 43.0813
rfemur -29.0485 11.5422 9.04608
rtibia 19.703
rfoot -8.69937 -10.9803
rtoes -2.13663
lfemur 5.95813 -0.526027 -30.2955
ltibia 17.0793
lfoot -12.9257 -1.62632
ltoes 3.45539
60
root 8.78608 18.0502 -17.1873 1.91508 -7.38206 6.58194
lowerback 1.78842 -2.09308 -10.2053
upperback -0.403213 -3.03215 -0.725062
thorax -0.939072 -1.45299 5.02447
lowerneck -12.2522 -3.68684 -3.66584
upperneck 8.61209 -4.60743 2.49179
head 4.72287 -2.22701 1.01068
rclavicle -2.0245e-014 -2.13694e-014
rhumerus -33.0032 -27.6888 -37.779
rradius 86.2906
rwrist -11.2939
rhand -26.1447 45.5939
rfingers 7.12502
rthumb 0.405968 15.6145
lclavicle -2.0245e-014 -2.13694e-014
lhumerus -20.72 -11.2622 82.1513
lradius 39.9279
lwrist 5.43829
lhand -24.4604 13.5319
lfingers 7.12502
lthumb 2.03268 43.502
rfemur -28.9598 11.1913 8.9761
rtibia 19.7849
rfoot -8.77401 -10.5448
rtoes -1.28919
lfemur 6.90213 -0.312639 -30.4566
ltibia 16.5618
lfoot -12.0571 -2.02559
ltoes 0.447195
61
root 8.75844 18.0193 -17.0151 1.68045 -7.01749 6.77739
lowerback 1.75109 -1.99894 -10.3077
upperback -0.204875 -2.89277 -0.86075
thorax -0.735313 -1.4002 4.93195
lowerneck -13.6252 -3.70475 -3.5126
upperneck 9.68663 -4.65257 2.6576
head 5.28512 -2.21867 1.00274
rclavicle 1.55634e-014 -9.49197e-015
rhumerus -32.5722 -28.662 -36.7287
rradius 87.0878
rwrist -11.1225
rhand -26.6846 46.8985
rfingers 7.12502
rthumb -0.115466 16.9188
lclavicle 1.55634e-014 -9.49197e-015
lhumerus -19.9482 -12.0255 82.159
lradius 39.8752
lwrist 5.76835
lhand -23.9606 13.9348
lfingers 7.12502
lthumb 2.5154 43.8997
rfemur -28.814 11.3573 8.89246
rtibia 20.0715
rfoot -8.90852 -10.6818
rtoes 0.349619
lfemur 7.62004 0.346116 -30.5634
ltibia 16.3056
lfoot -11.1277 -1.92516
ltoes -9.25802
